<?xml version="1.0" encoding="iso-8859-1"?>
<!-- Generator: Adobe Illustrator 19.0.0, SVG Export Plug-In . SVG Version: 6.00 Build 0)  -->
<svg version="1.1" id="Layer_1" xmlns="http://www.w3.org/2000/svg" xmlns:xlink="http://www.w3.org/1999/xlink" x="0px" y="0px"
	 viewBox="0 0 481.882 481.882" style="enable-background:new 0 0 481.882 481.882;" xml:space="preserve">
<path style="fill:#E56353;" d="M0,240.941c0,133.12,107.821,240.941,240.941,240.941V0C107.821,0,0,107.821,0,240.941z"/>
<path style="fill:#D15241;" d="M240.941,0v481.882c133.12,0,240.941-107.821,240.941-240.941S374.061,0,240.941,0z"/>
<polygon style="fill:#CE412D;" points="311.416,114.447 240.941,184.922 170.466,114.447 106.014,179.501 175.887,249.976 
	106.014,319.849 170.466,384.904 240.941,314.428 311.416,384.904 375.868,319.849 305.995,249.976 375.868,179.501 "/>
<polygon style="fill:#FFFFFF;" points="311.416,96.979 240.941,167.454 170.466,96.979 106.014,162.033 175.887,231.906 
	106.014,302.381 170.466,367.435 240.941,296.96 311.416,367.435 375.868,302.381 305.995,231.906 375.868,162.033 "/>
<g>
</g>
<g>
</g>
<g>
</g>
<g>
</g>
<g>
</g>
<g>
</g>
<g>
</g>
<g>
</g>
<g>
</g>
<g>
</g>
<g>
</g>
<g>
</g>
<g>
</g>
<g>
</g>
<g>
</g>
</svg>
